<mxfile host="app.diagrams.net" agent="Mozilla/5.0 (Windows NT 10.0; Win64; x64) AppleWebKit/537.36 (KHTML, like Gecko) Chrome/128.0.0.0 Safari/537.36" version="24.7.13">
  <diagram name="Strona-1" id="IgY-TPN_slxYMBxNZM7g">
    <mxGraphModel dx="1877" dy="4037" grid="1" gridSize="10" guides="1" tooltips="1" connect="1" arrows="1" fold="1" page="1" pageScale="1" pageWidth="827" pageHeight="1169" math="0" shadow="0">
      <root>
        <mxCell id="0" />
        <mxCell id="1" parent="0" />
        <mxCell id="5LtJHHfmOMXa2Zliw4R3-2" value="User" style="swimlane;childLayout=stackLayout;horizontal=1;startSize=50;horizontalStack=0;rounded=1;fontSize=14;fontStyle=0;strokeWidth=2;resizeParent=0;resizeLast=1;shadow=0;dashed=0;align=center;arcSize=4;whiteSpace=wrap;html=1;" vertex="1" parent="1">
          <mxGeometry y="-2338" width="110" height="178" as="geometry">
            <mxRectangle y="-2338" width="70" height="50" as="alternateBounds" />
          </mxGeometry>
        </mxCell>
        <mxCell id="5LtJHHfmOMXa2Zliw4R3-3" value="+ID&lt;br&gt;+username&lt;div&gt;+password_hash&lt;/div&gt;&lt;div&gt;+avatar_url&lt;/div&gt;&lt;div&gt;+friend_list&lt;/div&gt;&lt;div&gt;+group_list&lt;/div&gt;&lt;div&gt;+chat_list&lt;br&gt;+status&lt;/div&gt;" style="align=left;strokeColor=none;fillColor=none;spacingLeft=4;fontSize=12;verticalAlign=top;resizable=0;rotatable=0;part=1;html=1;" vertex="1" parent="5LtJHHfmOMXa2Zliw4R3-2">
          <mxGeometry y="50" width="110" height="128" as="geometry" />
        </mxCell>
        <mxCell id="5LtJHHfmOMXa2Zliw4R3-4" value="Group" style="swimlane;childLayout=stackLayout;horizontal=1;startSize=50;horizontalStack=0;rounded=1;fontSize=14;fontStyle=0;strokeWidth=2;resizeParent=0;resizeLast=1;shadow=0;dashed=0;align=center;arcSize=4;whiteSpace=wrap;html=1;" vertex="1" parent="1">
          <mxGeometry x="120" y="-2338" width="90" height="148" as="geometry" />
        </mxCell>
        <mxCell id="5LtJHHfmOMXa2Zliw4R3-5" value="+ID&lt;br&gt;+name&lt;div&gt;+icon&lt;/div&gt;&lt;div&gt;+status&lt;/div&gt;&lt;div&gt;+user_list&lt;br&gt;+message_list&lt;/div&gt;" style="align=left;strokeColor=none;fillColor=none;spacingLeft=4;fontSize=12;verticalAlign=top;resizable=0;rotatable=0;part=1;html=1;" vertex="1" parent="5LtJHHfmOMXa2Zliw4R3-4">
          <mxGeometry y="50" width="90" height="98" as="geometry" />
        </mxCell>
        <mxCell id="5LtJHHfmOMXa2Zliw4R3-12" value="Chat" style="swimlane;childLayout=stackLayout;horizontal=1;startSize=50;horizontalStack=0;rounded=1;fontSize=14;fontStyle=0;strokeWidth=2;resizeParent=0;resizeLast=1;shadow=0;dashed=0;align=center;arcSize=4;whiteSpace=wrap;html=1;" vertex="1" parent="1">
          <mxGeometry x="220" y="-2338" width="90" height="118" as="geometry" />
        </mxCell>
        <mxCell id="5LtJHHfmOMXa2Zliw4R3-13" value="+ID&lt;br&gt;+user_1&lt;br&gt;+user_2&lt;div&gt;+message_list&lt;/div&gt;" style="align=left;strokeColor=none;fillColor=none;spacingLeft=4;fontSize=12;verticalAlign=top;resizable=0;rotatable=0;part=1;html=1;" vertex="1" parent="5LtJHHfmOMXa2Zliw4R3-12">
          <mxGeometry y="50" width="90" height="68" as="geometry" />
        </mxCell>
      </root>
    </mxGraphModel>
  </diagram>
</mxfile>
